<svg viewBox="0 0 512 512" id="Layer_1" version="1.1" xml:space="preserve" xmlns="http://www.w3.org/2000/svg" xmlns:xlink="http://www.w3.org/1999/xlink" fill="#000000"><g id="SVGRepo_bgCarrier" stroke-width="0"></g><g id="SVGRepo_tracerCarrier" stroke-linecap="round" stroke-linejoin="round"></g><g id="SVGRepo_iconCarrier"> <style type="text/css"> .st0{fill:#ffffff;} .st1{fill:#ffffff;} </style> <path class="st0" d="M253,449.3c3.3,0.2,6.6,0.3,10,0.3c3.3,0,6.7-0.1,10-0.3l-0.5-9.4c29.1-1.5,56.4-9.7,80.3-23l-21.5-21.5h-93.7 l-34.7,34.7c16,5.5,33,8.9,50.7,9.8L253,449.3z"></path> <path class="st0" d="M227.6,65.7c6.5-1.2,13.2-2.1,20-2.6l0.8,9.6c4.8-0.4,9.7-0.6,14.6-0.6c9.5,0,19,0.7,28.2,2.2l-0.4,99l-42.5,41 V147l-65.5-56.5c14.5-7,30.2-12.2,46.7-15.3L227.6,65.7z"></path> <g> <path class="st1" d="M499.6,146c-9.9-29.6-47.8-46.3-106.9-47.1C357,69.5,311.5,52.2,263,52.2c-5.4,0-10.8,0.2-16.2,0.6l1.6,19.9 c4.8-0.4,9.7-0.6,14.6-0.6c9.5,0,19,0.7,28.2,2.2l-0.4,99l-42.5,41V147l-65.5-56.5c14.5-7,30.2-12.2,46.7-15.3l-3.6-19.7 c-81.4,15-144,77.2-161.7,155.3C21.3,245.5,3,280,12.4,308.2c7.6,22.8,32.3,38.1,70.6,44.2c32.7,61.1,95.6,103.7,169.4,107.4l1-20 c-17.7-0.9-34.7-4.3-50.7-9.8l34.7-34.7h93.7l21.5,21.5c-23.9,13.4-51.2,21.6-80.3,23l1,20c108.5-5.5,193.5-95,193.5-203.7 c0-9.3-0.6-18.7-1.9-27.9C495.4,198.8,507.6,170.1,499.6,146z M31.4,301.9c-5.3-16,4.8-37.3,28.1-60.3c-0.3,4.8-0.5,9.6-0.5,14.5 c0,26,4.9,50.9,13.8,73.9C50.2,324.4,35.7,314.8,31.4,301.9z M370,405.8l-30.5-30.5H229.2l-46.5,46.5c-30.8-14.9-56.8-38.2-75-66.8 c1.1,0.1,2.2,0.1,3.3,0.2c4.3,0.2,8.8,0.3,13.3,0.3c48.5,0,106.3-10.4,164.5-29.8c62.5-20.8,118.3-49.5,157.8-81.1 c0.2,3.9,0.4,7.8,0.4,11.7C446.9,317.7,416.7,372.4,370,405.8z M436.2,227.1c-37.7,30.8-92.3,59-153.7,79.4 c-61.4,20.4-122,30.6-170.6,28.5c-5.4-0.2-10.7-0.6-15.6-1.1c-11-23.7-17.2-50.1-17.2-77.9c0-64.5,33.4-122.3,85.1-155.3l64,55.3 v105.3l82.5-79.5l0.5-103.3c42.2,11.5,78.9,37.7,103.6,73.5l20.4-5.5c-6-9.4-12.8-18.3-20.2-26.5c36.1,3.7,60.1,15.2,65.8,32.2 C487,171.6,470.8,198.9,436.2,227.1z"></path> <path class="st1" d="M425.5,169.9c3.2,5.9,6,12.1,8.5,18.4l19.4-5.2c-2.4-6.3-5.2-12.5-8.2-18.5L425.5,169.9z"></path> </g> </g></svg>