<?xml version="1.0" encoding="UTF-8"?>
<svg width="1200pt" height="1200pt" version="1.1" viewBox="0 0 1200 1200" xmlns="http://www.w3.org/2000/svg">
 <path fill="gray" d="m216 698.35 180.92-185.34c7.082-7.2578 16.797-11.352 26.938-11.352h352.28c10.141 0 19.855 4.0938 26.938 11.352l180.92 185.34v189.42c0 33.266-26.969 60.234-60.234 60.234h-647.53c-33.266 0-60.234-26.969-60.234-60.234zm56.469-15.129 146.82-151.3h361.41l146.82 151.3h-188.24v30.582c0 37.426-30.34 67.766-67.762 67.766h-143.06c-37.422 0-67.762-30.34-67.762-67.766v-30.582zm-26.469 30.781h186c0 52.355 42.445 94.801 94.801 94.801h146.4c52.355 0 94.801-42.445 94.801-94.801h186v168c0 19.883-16.117 36-36 36h-636c-19.883 0-36-16.117-36-36zm369.06-288c0 8.3555-6.7422 15.129-15.059 15.129s-15.059-6.7734-15.059-15.129v-158.87c0-8.3555 6.7422-15.129 15.059-15.129s15.059 6.7734 15.059 15.129zm97.375 13.637c-2.1562 8.0703-10.41 12.863-18.445 10.699-8.0312-2.1641-12.801-10.461-10.648-18.531l40.926-153.46c2.1523-8.0703 10.41-12.859 18.441-10.699 8.0352 2.1641 12.801 10.461 10.648 18.531zm-192.49-7.832c2.1523 8.0703-2.6172 16.367-10.648 18.531-8.0352 2.1641-16.293-2.6289-18.445-10.699l-40.922-153.46c-2.1523-8.0703 2.6133-16.367 10.648-18.531 8.0312-2.1602 16.289 2.6289 18.441 10.699z" fill-rule="evenodd"/>
</svg>