<svg width="119" height="146" viewBox="0 0 119 146" fill="none" xmlns="http://www.w3.org/2000/svg">
<mask id="path-1-outside-1_1_4" maskUnits="userSpaceOnUse" x="-2" y="-1" width="123" height="148" fill="black">
<rect fill="white" x="-2" y="-1" width="123" height="148"/>
<path d="M21.4762 145.455L58.9762 84.9432H60.1126L97.6126 145.455H118.351L72.6126 72.7273L118.351 0H97.6126L60.1126 59.375H58.9762L21.4762 0H0.737571L47.6126 72.7273L0.737571 145.455H21.4762Z"/>
</mask>
<path d="M21.4762 145.455L58.9762 84.9432H60.1126L97.6126 145.455H118.351L72.6126 72.7273L118.351 0H97.6126L60.1126 59.375H58.9762L21.4762 0H0.737571L47.6126 72.7273L0.737571 145.455H21.4762Z" fill="black"/>
<path d="M21.4762 145.455L21.9012 145.718L21.7546 145.955H21.4762V145.455ZM58.9762 84.9432L58.5512 84.6798L58.6978 84.4432H58.9762V84.9432ZM60.1126 84.9432V84.4432H60.3909L60.5376 84.6798L60.1126 84.9432ZM97.6126 145.455V145.955H97.3342L97.1876 145.718L97.6126 145.455ZM118.351 145.455L118.774 145.188L119.256 145.955H118.351V145.455ZM72.6126 72.7273L72.1893 72.9935L72.0219 72.7273L72.1893 72.4611L72.6126 72.7273ZM118.351 0V-0.5H119.256L118.774 0.26619L118.351 0ZM97.6126 0L97.1898 -0.266998L97.337 -0.5H97.6126V0ZM60.1126 59.375L60.5353 59.642L60.3882 59.875H60.1126V59.375ZM58.9762 59.375V59.875H58.7006L58.5535 59.642L58.9762 59.375ZM21.4762 0V-0.5H21.7518L21.899 -0.266998L21.4762 0ZM0.737571 0L0.317302 0.270874L-0.179552 -0.5H0.737571V0ZM47.6126 72.7273L48.0328 72.4564L48.2074 72.7273L48.0328 72.9982L47.6126 72.7273ZM0.737571 145.455V145.955H-0.179552L0.317302 145.184L0.737571 145.455ZM20.4887 145.955H19.9887V144.955H20.4887V145.955ZM15.5509 144.955H16.0509V145.955H15.5509V144.955ZM13.5758 145.955H13.0758V144.955H13.5758V145.955ZM8.638 144.955H9.138V145.955H8.638V144.955ZM6.6629 145.955H6.1629V144.955H6.6629V145.955ZM1.72513 144.955H2.22513V145.955H1.72513V144.955ZM0.875338 144.318L1.14621 143.898L1.98675 144.439L1.71588 144.86L0.875338 144.318ZM4.50605 140.531L4.23518 140.951L3.39464 140.409L3.66552 139.989L4.50605 140.531ZM4.78159 138.257L5.05246 137.837L5.893 138.379L5.62213 138.799L4.78159 138.257ZM8.4123 134.47L8.14143 134.89L7.30089 134.349L7.57177 133.928L8.4123 134.47ZM8.68784 132.197L8.95871 131.776L9.79925 132.318L9.52838 132.738L8.68784 132.197ZM12.3186 128.409L12.0477 128.83L11.2071 128.288L11.478 127.868L12.3186 128.409ZM12.5941 126.136L12.865 125.716L13.7055 126.258L13.4346 126.678L12.5941 126.136ZM16.2248 122.349L15.9539 122.769L15.1134 122.227L15.3843 121.807L16.2248 122.349ZM16.5003 120.075L16.7712 119.655L17.6118 120.197L17.3409 120.617L16.5003 120.075ZM20.1311 116.288L19.8602 116.708L19.0196 116.167L19.2905 115.746L20.1311 116.288ZM20.4066 114.015L20.6775 113.595L21.518 114.136L21.2471 114.557L20.4066 114.015ZM24.0373 110.228L23.7664 110.648L22.9259 110.106L23.1968 109.686L24.0373 110.228ZM24.3128 107.954L24.5837 107.534L25.4243 108.076L25.1534 108.496L24.3128 107.954ZM27.9436 104.167L27.6727 104.587L26.8321 104.045L27.103 103.625L27.9436 104.167ZM28.2191 101.894L28.49 101.473L29.3305 102.015L29.0596 102.435L28.2191 101.894ZM31.8498 98.1064L31.5789 98.5266L30.7384 97.9849L31.0093 97.5646L31.8498 98.1064ZM32.1253 95.833L32.3962 95.4128L33.2368 95.9545L32.9659 96.3748L32.1253 95.833ZM35.7561 92.0458L35.4852 92.466L34.6446 91.9243L34.9155 91.504L35.7561 92.0458ZM36.0316 89.7724L36.3025 89.3521L37.143 89.8939L36.8721 90.3142L36.0316 89.7724ZM39.6623 85.9852L39.3914 86.4054L38.5509 85.8637L38.8218 85.4434L39.6623 85.9852ZM39.9378 83.7118L40.2087 83.2915L41.0493 83.8333L40.7784 84.2536L39.9378 83.7118ZM43.5686 79.9246L43.2977 80.3448L42.4571 79.8031L42.728 79.3828L43.5686 79.9246ZM43.8441 77.6512L44.115 77.2309L44.9555 77.7727L44.6846 78.193L43.8441 77.6512ZM47.4748 73.864L47.2039 74.2842L46.3634 73.7425L46.6343 73.3222L47.4748 73.864ZM46.6343 72.1323L46.3634 71.7121L47.2039 71.1703L47.4748 71.5906L46.6343 72.1323ZM44.6846 67.2616L44.9555 67.6819L44.115 68.2236L43.8441 67.8033L44.6846 67.2616ZM42.728 66.0717L42.4571 65.6515L43.2977 65.1097L43.5686 65.53L42.728 66.0717ZM40.7784 61.201L41.0493 61.6213L40.2087 62.163L39.9378 61.7427L40.7784 61.201ZM38.8218 60.0111L38.5509 59.5909L39.3914 59.0491L39.6623 59.4694L38.8218 60.0111ZM36.8721 55.1404L37.143 55.5607L36.3025 56.1024L36.0316 55.6821L36.8721 55.1404ZM34.9155 53.9505L34.6446 53.5303L35.4852 52.9885L35.7561 53.4088L34.9155 53.9505ZM32.9659 49.0798L33.2368 49.5L32.3962 50.0418L32.1253 49.6215L32.9659 49.0798ZM31.0093 47.8899L30.7384 47.4697L31.5789 46.9279L31.8498 47.3482L31.0093 47.8899ZM29.0596 43.0192L29.3305 43.4394L28.49 43.9812L28.2191 43.5609L29.0596 43.0192ZM27.103 41.8293L26.8321 41.4091L27.6727 40.8673L27.9436 41.2876L27.103 41.8293ZM25.1534 36.9586L25.4243 37.3788L24.5837 37.9206L24.3128 37.5003L25.1534 36.9586ZM23.1968 35.7687L22.9259 35.3484L23.7664 34.8067L24.0373 35.227L23.1968 35.7687ZM21.2471 30.8979L21.518 31.3182L20.6775 31.86L20.4066 31.4397L21.2471 30.8979ZM19.2905 29.7081L19.0196 29.2878L19.8602 28.7461L20.1311 29.1664L19.2905 29.7081ZM17.3409 24.8374L17.6118 25.2576L16.7712 25.7994L16.5003 25.3791L17.3409 24.8374ZM15.3843 23.6475L15.1134 23.2272L15.9539 22.6855L16.2248 23.1057L15.3843 23.6475ZM13.4346 18.7767L13.7055 19.197L12.865 19.7388L12.5941 19.3185L13.4346 18.7767ZM11.478 17.5869L11.2071 17.1666L12.0477 16.6249L12.3186 17.0452L11.478 17.5869ZM9.52838 12.7161L9.79925 13.1364L8.95872 13.6782L8.68784 13.2579L9.52838 12.7161ZM7.57177 11.5263L7.30089 11.106L8.14143 10.5643L8.41231 10.9845L7.57177 11.5263ZM5.62213 6.65553L5.89301 7.07581L5.05247 7.61755L4.78159 7.1973L5.62213 6.65553ZM3.66552 5.46568L3.39464 5.04543L4.23518 4.50366L4.50606 4.92393L3.66552 5.46568ZM1.71588 0.59494L1.98676 1.0152L1.14622 1.55696L0.875344 1.13669L1.71588 0.59494ZM1.72513 -0.5H2.22513V0.5H1.72513V-0.5ZM6.6629 0.5H6.1629V-0.5H6.6629V0.5ZM8.63801 -0.5H9.13801V0.5H8.63801V-0.5ZM13.5758 0.5H13.0758V-0.5H13.5758V0.5ZM15.5509 -0.5H16.0509V0.5H15.5509V-0.5ZM20.4887 0.5H19.9887V-0.5H20.4887V0.5ZM22.4347 0.581223L22.7017 1.00397L21.8562 1.53795L21.5892 1.1152L22.4347 0.581223ZM24.2677 5.35628L24.0008 4.93353L24.8462 4.39955L25.1132 4.8223L24.2677 5.35628ZM26.1847 6.51872L26.4517 6.94147L25.6062 7.47545L25.3392 7.0527L26.1847 6.51872ZM28.0177 11.2938L27.7508 10.871L28.5962 10.3371L28.8632 10.7598L28.0177 11.2938ZM29.9347 12.4562L30.2017 12.879L29.3562 13.4129L29.0892 12.9902L29.9347 12.4562ZM31.7677 17.2313L31.5008 16.8085L32.3462 16.2746L32.6132 16.6973L31.7677 17.2313ZM33.6847 18.3937L33.9517 18.8165L33.1062 19.3504L32.8392 18.9277L33.6847 18.3937ZM35.5177 23.1688L35.2508 22.746L36.0962 22.2121L36.3632 22.6348L35.5177 23.1688ZM37.4347 24.3312L37.7017 24.754L36.8562 25.2879L36.5892 24.8652L37.4347 24.3312ZM39.2677 29.1063L39.0008 28.6835L39.8462 28.1496L40.1132 28.5723L39.2677 29.1063ZM41.1847 30.2687L41.4517 30.6915L40.6062 31.2255L40.3392 30.8027L41.1847 30.2687ZM43.0177 35.0438L42.7508 34.621L43.5962 34.0871L43.8632 34.5098L43.0177 35.0438ZM44.9347 36.2062L45.2017 36.629L44.3562 37.1629L44.0892 36.7402L44.9347 36.2062ZM46.7677 40.9813L46.5008 40.5585L47.3462 40.0246L47.6132 40.4473L46.7677 40.9813ZM48.6847 42.1437L48.9517 42.5665L48.1062 43.1005L47.8392 42.6777L48.6847 42.1437ZM50.5177 46.9188L50.2508 46.496L51.0962 45.962L51.3632 46.3848L50.5177 46.9188ZM52.4347 48.0812L52.7017 48.504L51.8562 49.0379L51.5892 48.6152L52.4347 48.0812ZM54.2677 52.8563L54.0008 52.4335L54.8462 51.8996L55.1132 52.3223L54.2677 52.8563ZM56.1847 54.0187L56.4517 54.4415L55.6062 54.9754L55.3392 54.5527L56.1847 54.0187ZM58.0177 58.7938L57.7508 58.371L58.5962 57.837L58.8632 58.2598L58.0177 58.7938ZM59.1385 58.875H59.6385V59.875H59.1385V58.875ZM59.9502 59.875H59.4502V58.875H59.9502V59.875ZM60.2255 58.2598L60.4925 57.8371L61.338 58.371L61.071 58.7938L60.2255 58.2598ZM63.7496 54.5527L63.4826 54.9754L62.6371 54.4415L62.9041 54.0187L63.7496 54.5527ZM63.9755 52.3223L64.2425 51.8996L65.088 52.4335L64.821 52.8563L63.9755 52.3223ZM67.4996 48.6152L67.2326 49.0379L66.3871 48.504L66.6541 48.0812L67.4996 48.6152ZM67.7255 46.3848L67.9925 45.9621L68.838 46.496L68.571 46.9188L67.7255 46.3848ZM71.2496 42.6777L70.9826 43.1004L70.1371 42.5665L70.4041 42.1437L71.2496 42.6777ZM71.4755 40.4473L71.7425 40.0246L72.588 40.5585L72.321 40.9813L71.4755 40.4473ZM74.9996 36.7402L74.7326 37.1629L73.8871 36.629L74.1541 36.2062L74.9996 36.7402ZM75.2255 34.5098L75.4925 34.0871L76.338 34.621L76.071 35.0438L75.2255 34.5098ZM78.7496 30.8027L78.4826 31.2254L77.6371 30.6915L77.9041 30.2687L78.7496 30.8027ZM78.9755 28.5723L79.2425 28.1495L80.088 28.6835L79.821 29.1063L78.9755 28.5723ZM82.4996 24.8652L82.2326 25.2879L81.3871 24.754L81.6541 24.3312L82.4996 24.8652ZM82.7255 22.6348L82.9925 22.2121L83.838 22.746L83.571 23.1688L82.7255 22.6348ZM86.2496 18.9277L85.9826 19.3504L85.1371 18.8165L85.4041 18.3937L86.2496 18.9277ZM86.4755 16.6973L86.7425 16.2746L87.588 16.8085L87.321 17.2313L86.4755 16.6973ZM89.9996 12.9902L89.7326 13.4129L88.8871 12.879L89.1541 12.4562L89.9996 12.9902ZM90.2255 10.7598L90.4925 10.3371L91.338 10.871L91.071 11.2938L90.2255 10.7598ZM93.7496 7.0527L93.4826 7.47545L92.6371 6.94147L92.9041 6.51872L93.7496 7.0527ZM93.9755 4.8223L94.2425 4.39955L95.088 4.93353L94.821 5.35628L93.9755 4.8223ZM97.4996 1.11522L97.2326 1.53796L96.3871 1.00397L96.6541 0.581223L97.4996 1.11522ZM98.6001 -0.5H99.1001V0.5H98.6001V-0.5ZM103.538 0.5H103.038V-0.5H103.538V0.5ZM105.513 -0.5H106.013V0.5H105.513V-0.5ZM110.451 0.5H109.951V-0.5H110.451V0.5ZM112.426 -0.5H112.926V0.5H112.426V-0.5ZM117.364 0.5H116.864V-0.5H117.364V0.5ZM118.23 1.13199L117.964 1.55524L117.117 1.02287L117.383 0.599609L118.23 1.13199ZM114.661 4.92862L114.927 4.50536L115.774 5.03773L115.507 5.461L114.661 4.92862ZM114.418 7.1926L114.152 7.61584L113.306 7.08348L113.572 6.66022L114.418 7.1926ZM110.849 10.9892L111.116 10.566L111.962 11.0983L111.696 11.5216L110.849 10.9892ZM110.607 13.2532L110.341 13.6765L109.494 13.1441L109.76 12.7208L110.607 13.2532ZM107.038 17.0498L107.304 16.6266L108.15 17.159L107.884 17.5822L107.038 17.0498ZM106.795 19.3138L106.529 19.7371L105.683 19.2047L105.949 18.7814L106.795 19.3138ZM103.226 23.1104L103.492 22.6872L104.339 23.2196L104.073 23.6428L103.226 23.1104ZM102.984 25.3744L102.718 25.7977L101.871 25.2653L102.137 24.842L102.984 25.3744ZM99.4147 29.171L99.6809 28.7478L100.527 29.2802L100.261 29.7034L99.4147 29.171ZM99.1722 31.435L98.906 31.8583L98.0595 31.3259L98.3257 30.9026L99.1722 31.435ZM95.6031 35.2316L95.8693 34.8084L96.7158 35.3408L96.4497 35.764L95.6031 35.2316ZM95.3606 37.4956L95.0945 37.9189L94.2479 37.3865L94.5141 36.9633L95.3606 37.4956ZM91.7916 41.2923L92.0578 40.869L92.9043 41.4014L92.6381 41.8246L91.7916 41.2923ZM91.5491 43.5562L91.2829 43.9795L90.4364 43.4471L90.7026 43.0238L91.5491 43.5562ZM87.98 47.3529L88.2462 46.9296L89.0927 47.462L88.8266 47.8852L87.98 47.3529ZM87.7375 49.6168L87.4713 50.0401L86.6248 49.5077L86.891 49.0845L87.7375 49.6168ZM84.1685 53.4135L84.4347 52.9902L85.2812 53.5226L85.015 53.9458L84.1685 53.4135ZM83.926 55.6774L83.6598 56.1007L82.8133 55.5683L83.0795 55.1451L83.926 55.6774ZM80.3569 59.4741L80.6231 59.0508L81.4696 59.5832L81.2034 60.0065L80.3569 59.4741ZM80.1144 61.7381L79.8482 62.1613L79.0017 61.6289L79.2679 61.2057L80.1144 61.7381ZM76.5454 65.5347L76.8116 65.1114L77.6581 65.6438L77.3919 66.0671L76.5454 65.5347ZM76.3029 67.7987L76.0367 68.2219L75.1902 67.6895L75.4564 67.2663L76.3029 67.7987ZM72.7338 71.5953L73 71.172L73.8465 71.7044L73.5803 72.1277L72.7338 71.5953ZM73.5803 73.3269L73.8465 73.7501L73 74.2825L72.7338 73.8593L73.5803 73.3269ZM75.4564 78.1883L75.1902 77.765L76.0367 77.2326L76.3029 77.6559L75.4564 78.1883ZM77.3919 79.3875L77.6581 79.8108L76.8116 80.3431L76.5454 79.9199L77.3919 79.3875ZM79.2679 84.2489L79.0017 83.8256L79.8482 83.2932L80.1144 83.7165L79.2679 84.2489ZM81.2034 85.4481L81.4696 85.8714L80.6231 86.4037L80.3569 85.9805L81.2034 85.4481ZM83.0795 90.3095L82.8133 89.8862L83.6598 89.3539L83.926 89.7771L83.0795 90.3095ZM85.015 91.5087L85.2812 91.932L84.4347 92.4643L84.1685 92.0411L85.015 91.5087ZM86.891 96.3701L86.6248 95.9468L87.4713 95.4145L87.7375 95.8377L86.891 96.3701ZM88.8265 97.5693L89.0927 97.9926L88.2462 98.5249L87.98 98.1017L88.8265 97.5693ZM90.7026 102.431L90.4364 102.007L91.2829 101.475L91.5491 101.898L90.7026 102.431ZM92.6381 103.63L92.9043 104.053L92.0578 104.586L91.7916 104.162L92.6381 103.63ZM94.5141 108.491L94.2479 108.068L95.0945 107.536L95.3606 107.959L94.5141 108.491ZM96.4497 109.691L96.7158 110.114L95.8693 110.646L95.6031 110.223L96.4497 109.691ZM98.3257 114.552L98.0595 114.129L98.906 113.596L99.1722 114.02L98.3257 114.552ZM100.261 115.751L100.527 116.174L99.6809 116.707L99.4147 116.284L100.261 115.751ZM102.137 120.613L101.871 120.189L102.718 119.657L102.984 120.08L102.137 120.613ZM104.073 121.812L104.339 122.235L103.492 122.767L103.226 122.344L104.073 121.812ZM105.949 126.673L105.683 126.25L106.529 125.717L106.795 126.141L105.949 126.673ZM107.884 127.872L108.15 128.296L107.304 128.828L107.038 128.405L107.884 127.872ZM109.76 132.734L109.494 132.31L110.341 131.778L110.607 132.201L109.76 132.734ZM111.696 133.933L111.962 134.356L111.116 134.889L110.849 134.465L111.696 133.933ZM113.572 138.794L113.306 138.371L114.152 137.839L114.418 138.262L113.572 138.794ZM115.507 139.994L115.774 140.417L114.927 140.949L114.661 140.526L115.507 139.994ZM117.383 144.855L117.117 144.432L117.964 143.899L118.23 144.323L117.383 144.855ZM117.364 145.955H116.864V144.955H117.364V145.955ZM112.426 144.955H112.926V145.955H112.426V144.955ZM110.451 145.955H109.951V144.955H110.451V145.955ZM105.513 144.955H106.013V145.955H105.513V144.955ZM103.538 145.955H103.038V144.955H103.538V145.955ZM98.6001 144.955H99.1001V145.955H98.6001V144.955ZM96.6518 144.853L96.3885 144.428L97.2385 143.902L97.5019 144.327L96.6518 144.853ZM94.8233 140.004L95.0867 140.429L94.2367 140.956L93.9733 140.531L94.8233 140.004ZM92.9018 138.802L92.6385 138.377L93.4885 137.851L93.7519 138.276L92.9018 138.802ZM91.0733 133.953L91.3367 134.378L90.4867 134.905L90.2233 134.48L91.0733 133.953ZM89.1518 132.751L88.8885 132.326L89.7385 131.799L90.0019 132.224L89.1518 132.751ZM87.3233 127.902L87.5867 128.327L86.7367 128.854L86.4733 128.429L87.3233 127.902ZM85.4018 126.7L85.1385 126.275L85.9885 125.748L86.2519 126.173L85.4018 126.7ZM83.5733 121.851L83.8367 122.276L82.9867 122.803L82.7233 122.378L83.5733 121.851ZM81.6519 120.649L81.3885 120.224L82.2385 119.697L82.5019 120.122L81.6519 120.649ZM79.8233 115.8L80.0867 116.225L79.2367 116.752L78.9733 116.327L79.8233 115.8ZM77.9018 114.598L77.6385 114.173L78.4885 113.646L78.7519 114.071L77.9018 114.598ZM76.0733 109.749L76.3367 110.174L75.4867 110.701L75.2233 110.276L76.0733 109.749ZM74.1519 108.547L73.8885 108.122L74.7385 107.595L75.0019 108.02L74.1519 108.547ZM72.3233 103.698L72.5867 104.123L71.7367 104.649L71.4733 104.224L72.3233 103.698ZM70.4019 102.496L70.1385 102.071L70.9885 101.544L71.2519 101.969L70.4019 102.496ZM68.5733 97.6465L68.8367 98.0715L67.9867 98.5983L67.7233 98.1733L68.5733 97.6465ZM66.6519 96.4444L66.3885 96.0194L67.2385 95.4926L67.5019 95.9176L66.6519 96.4444ZM64.8233 91.5954L65.0867 92.0204L64.2367 92.5472L63.9733 92.1222L64.8233 91.5954ZM62.9019 90.3933L62.6385 89.9683L63.4885 89.4415L63.7519 89.8665L62.9019 90.3933ZM61.0733 85.5443L61.3367 85.9693L60.4867 86.496L60.2233 86.071L61.0733 85.5443ZM59.9502 85.4432H59.4502V84.4432H59.9502V85.4432ZM59.1385 84.4432H59.6385V85.4432H59.1385V84.4432ZM58.8655 86.071L58.6021 86.496L57.7521 85.9693L58.0155 85.5443L58.8655 86.071ZM55.3369 89.8665L55.6003 89.4415L56.4503 89.9683L56.1869 90.3933L55.3369 89.8665ZM55.1155 92.1222L54.8521 92.5472L54.0021 92.0204L54.2655 91.5954L55.1155 92.1222ZM51.5869 95.9176L51.8503 95.4926L52.7003 96.0194L52.4369 96.4444L51.5869 95.9176ZM51.3655 98.1733L51.1021 98.5983L50.2521 98.0715L50.5155 97.6465L51.3655 98.1733ZM47.8369 101.969L48.1003 101.544L48.9503 102.071L48.6869 102.496L47.8369 101.969ZM47.6155 104.224L47.3521 104.649L46.5021 104.123L46.7655 103.698L47.6155 104.224ZM44.0869 108.02L44.3503 107.595L45.2003 108.122L44.9369 108.547L44.0869 108.02ZM43.8655 110.276L43.6021 110.701L42.7521 110.174L43.0155 109.749L43.8655 110.276ZM40.3369 114.071L40.6003 113.646L41.4503 114.173L41.1869 114.598L40.3369 114.071ZM40.1155 116.327L39.8521 116.752L39.0021 116.225L39.2655 115.8L40.1155 116.327ZM36.5869 120.122L36.8503 119.697L37.7003 120.224L37.4369 120.649L36.5869 120.122ZM36.3655 122.378L36.1021 122.803L35.2521 122.276L35.5155 121.851L36.3655 122.378ZM32.8369 126.173L33.1003 125.748L33.9503 126.275L33.6869 126.7L32.8369 126.173ZM32.6155 128.429L32.3521 128.854L31.5021 128.327L31.7655 127.902L32.6155 128.429ZM29.0869 132.224L29.3503 131.799L30.2003 132.326L29.9369 132.751L29.0869 132.224ZM28.8655 134.48L28.6021 134.905L27.7521 134.378L28.0155 133.953L28.8655 134.48ZM25.3369 138.276L25.6003 137.851L26.4503 138.377L26.1869 138.802L25.3369 138.276ZM25.1155 140.531L24.8521 140.956L24.0021 140.429L24.2655 140.004L25.1155 140.531ZM21.5869 144.327L21.8503 143.902L22.7003 144.428L22.4369 144.853L21.5869 144.327ZM21.4762 145.955H20.4887V144.955H21.4762V145.955ZM15.5509 145.955H13.5758V144.955H15.5509V145.955ZM8.638 145.955H6.6629V144.955H8.638V145.955ZM1.72513 145.955H0.737571V144.955H1.72513V145.955ZM0.317302 145.184L0.875338 144.318L1.71588 144.86L1.15784 145.725L0.317302 145.184ZM3.66552 139.989L4.78159 138.257L5.62213 138.799L4.50605 140.531L3.66552 139.989ZM7.57177 133.928L8.68784 132.197L9.52838 132.738L8.4123 134.47L7.57177 133.928ZM11.478 127.868L12.5941 126.136L13.4346 126.678L12.3186 128.409L11.478 127.868ZM15.3843 121.807L16.5003 120.075L17.3409 120.617L16.2248 122.349L15.3843 121.807ZM19.2905 115.746L20.4066 114.015L21.2471 114.557L20.1311 116.288L19.2905 115.746ZM23.1968 109.686L24.3128 107.954L25.1534 108.496L24.0373 110.228L23.1968 109.686ZM27.103 103.625L28.2191 101.894L29.0596 102.435L27.9436 104.167L27.103 103.625ZM31.0093 97.5646L32.1253 95.833L32.9659 96.3748L31.8498 98.1064L31.0093 97.5646ZM34.9155 91.504L36.0316 89.7724L36.8721 90.3142L35.7561 92.0458L34.9155 91.504ZM38.8218 85.4434L39.9378 83.7118L40.7784 84.2536L39.6623 85.9852L38.8218 85.4434ZM42.728 79.3828L43.8441 77.6512L44.6846 78.193L43.5686 79.9246L42.728 79.3828ZM46.6343 73.3222L47.1923 72.4564L48.0328 72.9982L47.4748 73.864L46.6343 73.3222ZM47.1923 72.9982L46.6343 72.1323L47.4748 71.5906L48.0328 72.4564L47.1923 72.9982ZM43.8441 67.8033L42.728 66.0717L43.5686 65.53L44.6846 67.2616L43.8441 67.8033ZM39.9378 61.7427L38.8218 60.0111L39.6623 59.4694L40.7784 61.201L39.9378 61.7427ZM36.0316 55.6821L34.9155 53.9505L35.7561 53.4088L36.8721 55.1404L36.0316 55.6821ZM32.1253 49.6215L31.0093 47.8899L31.8498 47.3482L32.9659 49.0798L32.1253 49.6215ZM28.2191 43.5609L27.103 41.8293L27.9436 41.2876L29.0596 43.0192L28.2191 43.5609ZM24.3128 37.5003L23.1968 35.7687L24.0373 35.227L25.1534 36.9586L24.3128 37.5003ZM20.4066 31.4397L19.2905 29.7081L20.1311 29.1664L21.2471 30.8979L20.4066 31.4397ZM16.5003 25.3791L15.3843 23.6475L16.2248 23.1057L17.3409 24.8374L16.5003 25.3791ZM12.5941 19.3185L11.478 17.5869L12.3186 17.0452L13.4346 18.7767L12.5941 19.3185ZM8.68784 13.2579L7.57177 11.5263L8.41231 10.9845L9.52838 12.7161L8.68784 13.2579ZM4.78159 7.1973L3.66552 5.46568L4.50606 4.92393L5.62213 6.65553L4.78159 7.1973ZM0.875344 1.13669L0.317302 0.270874L1.15784 -0.270874L1.71588 0.59494L0.875344 1.13669ZM0.737571 -0.5H1.72513V0.5H0.737571V-0.5ZM6.6629 -0.5H8.63801V0.5H6.6629V-0.5ZM13.5758 -0.5H15.5509V0.5H13.5758V-0.5ZM20.4887 -0.5H21.4762V0.5H20.4887V-0.5ZM21.899 -0.266998L22.4347 0.581223L21.5892 1.1152L21.0535 0.266998L21.899 -0.266998ZM25.1132 4.8223L26.1847 6.51872L25.3392 7.0527L24.2677 5.35628L25.1132 4.8223ZM28.8632 10.7598L29.9347 12.4562L29.0892 12.9902L28.0177 11.2938L28.8632 10.7598ZM32.6132 16.6973L33.6847 18.3937L32.8392 18.9277L31.7677 17.2313L32.6132 16.6973ZM36.3632 22.6348L37.4347 24.3312L36.5892 24.8652L35.5177 23.1688L36.3632 22.6348ZM40.1132 28.5723L41.1847 30.2687L40.3392 30.8027L39.2677 29.1063L40.1132 28.5723ZM43.8632 34.5098L44.9347 36.2062L44.0892 36.7402L43.0177 35.0438L43.8632 34.5098ZM47.6132 40.4473L48.6847 42.1437L47.8392 42.6777L46.7677 40.9813L47.6132 40.4473ZM51.3632 46.3848L52.4347 48.0812L51.5892 48.6152L50.5177 46.9188L51.3632 46.3848ZM55.1132 52.3223L56.1847 54.0187L55.3392 54.5527L54.2677 52.8563L55.1132 52.3223ZM58.8632 58.2598L59.3989 59.108L58.5535 59.642L58.0177 58.7938L58.8632 58.2598ZM58.9762 58.875H59.1385V59.875H58.9762V58.875ZM59.9502 58.875H60.1126V59.875H59.9502V58.875ZM59.6898 59.108L60.2255 58.2598L61.071 58.7938L60.5353 59.642L59.6898 59.108ZM62.9041 54.0187L63.9755 52.3223L64.821 52.8563L63.7496 54.5527L62.9041 54.0187ZM66.6541 48.0812L67.7255 46.3848L68.571 46.9188L67.4996 48.6152L66.6541 48.0812ZM70.4041 42.1437L71.4755 40.4473L72.321 40.9813L71.2496 42.6777L70.4041 42.1437ZM74.1541 36.2062L75.2255 34.5098L76.071 35.0438L74.9996 36.7402L74.1541 36.2062ZM77.9041 30.2687L78.9755 28.5723L79.821 29.1063L78.7496 30.8027L77.9041 30.2687ZM81.6541 24.3312L82.7255 22.6348L83.571 23.1688L82.4996 24.8652L81.6541 24.3312ZM85.4041 18.3937L86.4755 16.6973L87.321 17.2313L86.2496 18.9277L85.4041 18.3937ZM89.1541 12.4562L90.2255 10.7598L91.071 11.2938L89.9996 12.9902L89.1541 12.4562ZM92.9041 6.51872L93.9755 4.8223L94.821 5.35628L93.7496 7.0527L92.9041 6.51872ZM96.6541 0.581223L97.1898 -0.266998L98.0353 0.266998L97.4996 1.11522L96.6541 0.581223ZM97.6126 -0.5H98.6001V0.5H97.6126V-0.5ZM103.538 -0.5H105.513V0.5H103.538V-0.5ZM110.451 -0.5H112.426V0.5H110.451V-0.5ZM117.364 -0.5H118.351V0.5H117.364V-0.5ZM118.774 0.26619L118.23 1.13199L117.383 0.599609L117.928 -0.26619L118.774 0.26619ZM115.507 5.461L114.418 7.1926L113.572 6.66022L114.661 4.92862L115.507 5.461ZM111.696 11.5216L110.607 13.2532L109.76 12.7208L110.849 10.9892L111.696 11.5216ZM107.884 17.5822L106.795 19.3138L105.949 18.7814L107.038 17.0498L107.884 17.5822ZM104.073 23.6428L102.984 25.3744L102.137 24.842L103.226 23.1104L104.073 23.6428ZM100.261 29.7034L99.1722 31.435L98.3257 30.9026L99.4147 29.171L100.261 29.7034ZM96.4497 35.764L95.3606 37.4956L94.5141 36.9633L95.6031 35.2316L96.4497 35.764ZM92.6381 41.8246L91.5491 43.5562L90.7026 43.0238L91.7916 41.2923L92.6381 41.8246ZM88.8266 47.8852L87.7375 49.6168L86.891 49.0845L87.98 47.3529L88.8266 47.8852ZM85.015 53.9458L83.926 55.6774L83.0795 55.1451L84.1685 53.4135L85.015 53.9458ZM81.2034 60.0065L80.1144 61.7381L79.2679 61.2057L80.3569 59.4741L81.2034 60.0065ZM77.3919 66.0671L76.3029 67.7987L75.4564 67.2663L76.5454 65.5347L77.3919 66.0671ZM73.5803 72.1277L73.0358 72.9935L72.1893 72.4611L72.7338 71.5953L73.5803 72.1277ZM73.0358 72.4611L73.5803 73.3269L72.7338 73.8593L72.1893 72.9935L73.0358 72.4611ZM76.3029 77.6559L77.3919 79.3875L76.5454 79.9199L75.4564 78.1883L76.3029 77.6559ZM80.1144 83.7165L81.2034 85.4481L80.3569 85.9805L79.2679 84.2489L80.1144 83.7165ZM83.926 89.7771L85.015 91.5087L84.1685 92.0411L83.0795 90.3095L83.926 89.7771ZM87.7375 95.8377L88.8265 97.5693L87.98 98.1017L86.891 96.3701L87.7375 95.8377ZM91.5491 101.898L92.6381 103.63L91.7916 104.162L90.7026 102.431L91.5491 101.898ZM95.3606 107.959L96.4497 109.691L95.6031 110.223L94.5141 108.491L95.3606 107.959ZM99.1722 114.02L100.261 115.751L99.4147 116.284L98.3257 114.552L99.1722 114.02ZM102.984 120.08L104.073 121.812L103.226 122.344L102.137 120.613L102.984 120.08ZM106.795 126.141L107.884 127.872L107.038 128.405L105.949 126.673L106.795 126.141ZM110.607 132.201L111.696 133.933L110.849 134.465L109.76 132.734L110.607 132.201ZM114.418 138.262L115.507 139.994L114.661 140.526L113.572 138.794L114.418 138.262ZM118.23 144.323L118.774 145.188L117.928 145.721L117.383 144.855L118.23 144.323ZM118.351 145.955H117.364V144.955H118.351V145.955ZM112.426 145.955H110.451V144.955H112.426V145.955ZM105.513 145.955H103.538V144.955H105.513V145.955ZM98.6001 145.955H97.6126V144.955H98.6001V145.955ZM97.1876 145.718L96.6518 144.853L97.5019 144.327L98.0376 145.191L97.1876 145.718ZM93.9733 140.531L92.9018 138.802L93.7519 138.276L94.8233 140.004L93.9733 140.531ZM90.2233 134.48L89.1518 132.751L90.0019 132.224L91.0733 133.953L90.2233 134.48ZM86.4733 128.429L85.4018 126.7L86.2519 126.173L87.3233 127.902L86.4733 128.429ZM82.7233 122.378L81.6519 120.649L82.5019 120.122L83.5733 121.851L82.7233 122.378ZM78.9733 116.327L77.9018 114.598L78.7519 114.071L79.8233 115.8L78.9733 116.327ZM75.2233 110.276L74.1519 108.547L75.0019 108.02L76.0733 109.749L75.2233 110.276ZM71.4733 104.224L70.4019 102.496L71.2519 101.969L72.3233 103.698L71.4733 104.224ZM67.7233 98.1733L66.6519 96.4444L67.5019 95.9176L68.5733 97.6465L67.7233 98.1733ZM63.9733 92.1222L62.9019 90.3933L63.7519 89.8665L64.8233 91.5954L63.9733 92.1222ZM60.2233 86.071L59.6876 85.2066L60.5376 84.6798L61.0733 85.5443L60.2233 86.071ZM60.1126 85.4432H59.9502V84.4432H60.1126V85.4432ZM59.1385 85.4432H58.9762V84.4432H59.1385V85.4432ZM59.4012 85.2066L58.8655 86.071L58.0155 85.5443L58.5512 84.6798L59.4012 85.2066ZM56.1869 90.3933L55.1155 92.1222L54.2655 91.5954L55.3369 89.8665L56.1869 90.3933ZM52.4369 96.4444L51.3655 98.1733L50.5155 97.6465L51.5869 95.9176L52.4369 96.4444ZM48.6869 102.496L47.6155 104.224L46.7655 103.698L47.8369 101.969L48.6869 102.496ZM44.9369 108.547L43.8655 110.276L43.0155 109.749L44.0869 108.02L44.9369 108.547ZM41.1869 114.598L40.1155 116.327L39.2655 115.8L40.3369 114.071L41.1869 114.598ZM37.4369 120.649L36.3655 122.378L35.5155 121.851L36.5869 120.122L37.4369 120.649ZM33.6869 126.7L32.6155 128.429L31.7655 127.902L32.8369 126.173L33.6869 126.7ZM29.9369 132.751L28.8655 134.48L28.0155 133.953L29.0869 132.224L29.9369 132.751ZM26.1869 138.802L25.1155 140.531L24.2655 140.004L25.3369 138.276L26.1869 138.802ZM22.4369 144.853L21.9012 145.718L21.0512 145.191L21.5869 144.327L22.4369 144.853ZM21.4762 145.455L22.3262 145.981L22.0329 146.455H21.4762V145.455ZM58.9762 84.9432L58.1262 84.4164L58.4195 83.9432H58.9762V84.9432ZM60.1126 84.9432V83.9432H60.6693L60.9626 84.4164L60.1126 84.9432ZM97.6126 145.455V146.455H97.0558L96.7626 145.981L97.6126 145.455ZM118.351 145.455L119.198 144.922L120.161 146.455H118.351V145.455ZM72.6126 72.7273L71.7661 73.2597L71.4313 72.7273L71.7661 72.1949L72.6126 72.7273ZM118.351 0V-1H120.161L119.198 0.532379L118.351 0ZM97.6126 0L96.7671 -0.533997L97.0614 -1H97.6126V0ZM60.1126 59.375L60.9581 59.909L60.6637 60.375H60.1126V59.375ZM58.9762 59.375V60.375H58.425L58.1307 59.909L58.9762 59.375ZM21.4762 0V-1H22.0274L22.3217 -0.533997L21.4762 0ZM0.737571 0L-0.102967 0.541748L-1.09667 -1H0.737571V0ZM47.6126 72.7273L48.4531 72.1855L48.8023 72.7273L48.4531 73.269L47.6126 72.7273ZM0.737571 145.455V146.455H-1.09667L-0.102967 144.913L0.737571 145.455ZM20.4887 146.455H19.4887V144.455H20.4887V146.455ZM15.5509 144.455H16.5509V146.455H15.5509V144.455ZM13.5758 146.455H12.5758V144.455H13.5758V146.455ZM8.638 144.455H9.638V146.455H8.638V144.455ZM6.6629 146.455H5.6629V144.455H6.6629V146.455ZM1.72513 144.455H2.72513V146.455H1.72513V144.455ZM0.455069 144.047L0.996822 143.206L2.6779 144.29L2.13614 145.131L0.455069 144.047ZM4.92632 140.801L4.38457 141.642L2.7035 140.559L3.24525 139.718L4.92632 140.801ZM4.36132 137.986L4.90307 137.146L6.58415 138.229L6.04239 139.07L4.36132 137.986ZM8.83257 134.741L8.29082 135.581L6.60975 134.498L7.1515 133.657L8.83257 134.741ZM8.26757 131.926L8.80932 131.085L10.4904 132.169L9.94864 133.009L8.26757 131.926ZM12.7388 128.68L12.1971 129.521L10.516 128.437L11.0577 127.597L12.7388 128.68ZM12.1738 125.865L12.7156 125.025L14.3966 126.108L13.8549 126.949L12.1738 125.865ZM16.6451 122.62L16.1033 123.46L14.4222 122.377L14.964 121.536L16.6451 122.62ZM16.0801 119.805L16.6218 118.964L18.3029 120.048L17.7611 120.888L16.0801 119.805ZM20.5513 116.559L20.0096 117.4L18.3285 116.316L18.8702 115.476L20.5513 116.559ZM19.9863 113.744L20.5281 112.903L22.2091 113.987L21.6674 114.827L19.9863 113.744ZM24.4576 110.498L23.9158 111.339L22.2347 110.256L22.7765 109.415L24.4576 110.498ZM23.8926 107.683L24.4343 106.843L26.1154 107.926L25.5736 108.767L23.8926 107.683ZM28.3638 104.438L27.8221 105.278L26.141 104.195L26.6828 103.354L28.3638 104.438ZM27.7988 101.623L28.3406 100.782L30.0216 101.866L29.4799 102.706L27.7988 101.623ZM32.2701 98.3773L31.7283 99.2178L30.0472 98.1343L30.589 97.2937L32.2701 98.3773ZM31.7051 95.5621L32.2468 94.7216L33.9279 95.8051L33.3862 96.6457L31.7051 95.5621ZM36.1763 92.3166L35.6346 93.1572L33.9535 92.0737L34.4953 91.2331L36.1763 92.3166ZM35.6113 89.5015L36.1531 88.661L37.8341 89.7445L37.2924 90.5851L35.6113 89.5015ZM40.0826 86.256L39.5408 87.0966L37.8597 86.0131L38.4015 85.1725L40.0826 86.256ZM39.5176 83.4409L40.0593 82.6004L41.7404 83.6839L41.1986 84.5244L39.5176 83.4409ZM43.9888 80.1954L43.4471 81.036L41.766 79.9525L42.3077 79.1119L43.9888 80.1954ZM43.4238 77.3803L43.9656 76.5398L45.6466 77.6233L45.1049 78.4638L43.4238 77.3803ZM47.8951 74.1348L47.3533 74.9754L45.6722 73.8919L46.214 73.0513L47.8951 74.1348ZM46.214 72.4032L45.6722 71.5627L47.3533 70.4792L47.8951 71.3197L46.214 72.4032ZM45.1049 66.9907L45.6467 67.8313L43.9656 68.9148L43.4238 68.0742L45.1049 66.9907ZM42.3078 66.3426L41.766 65.5021L43.4471 64.4186L43.9888 65.2591L42.3078 66.3426ZM41.1986 60.9301L41.7404 61.7706L40.0593 62.8542L39.5176 62.0136L41.1986 60.9301ZM38.4015 60.282L37.8597 59.4415L39.5408 58.358L40.0826 59.1985L38.4015 60.282ZM37.2924 54.8695L37.8341 55.71L36.1531 56.7935L35.6113 55.953L37.2924 54.8695ZM34.4953 54.2214L33.9535 53.3809L35.6346 52.2974L36.1763 53.1379L34.4953 54.2214ZM33.3861 48.8089L33.9279 49.6494L32.2468 50.7329L31.7051 49.8924L33.3861 48.8089ZM30.589 48.1608L30.0472 47.3203L31.7283 46.2368L32.2701 47.0773L30.589 48.1608ZM29.4799 42.7483L30.0216 43.5888L28.3406 44.6723L27.7988 43.8318L29.4799 42.7483ZM26.6827 42.1002L26.141 41.2597L27.8221 40.1761L28.3638 41.0167L26.6827 42.1002ZM25.5736 36.6877L26.1154 37.5282L24.4343 38.6117L23.8926 37.7712L25.5736 36.6877ZM22.7765 36.0396L22.2347 35.1991L23.9158 34.1155L24.4576 34.9561L22.7765 36.0396ZM21.6674 30.6271L22.2091 31.4676L20.5281 32.5511L19.9863 31.7106L21.6674 30.6271ZM18.8702 29.979L18.3285 29.1384L20.0096 28.0549L20.5513 28.8955L18.8702 29.979ZM17.7611 24.5665L18.3029 25.407L16.6218 26.4905L16.0801 25.65L17.7611 24.5665ZM14.964 23.9184L14.4222 23.0778L16.1033 21.9943L16.6451 22.8349L14.964 23.9184ZM13.8549 18.5059L14.3966 19.3464L12.7156 20.4299L12.1738 19.5894L13.8549 18.5059ZM11.0578 17.8578L10.516 17.0172L12.1971 15.9337L12.7388 16.7743L11.0578 17.8578ZM9.94865 12.4453L10.4904 13.2858L8.80932 14.3693L8.26757 13.5288L9.94865 12.4453ZM7.1515 11.7972L6.60975 10.9566L8.29082 9.87312L8.83258 10.7137L7.1515 11.7972ZM6.0424 6.38466L6.58415 7.2252L4.90308 8.3087L4.36132 7.46817L6.0424 6.38466ZM3.24525 5.73656L2.7035 4.89603L4.38457 3.81252L4.92633 4.65306L3.24525 5.73656ZM2.13615 0.324051L2.6779 1.1646L0.996828 2.24811L0.455075 1.40756L2.13615 0.324051ZM1.72513 -1H2.72513V1H1.72513V-1ZM6.6629 1H5.6629V-1H6.6629V1ZM8.63801 -1H9.63801V1H8.63801V-1ZM13.5758 1H12.5758V-1H13.5758V1ZM15.5509 -1H16.5509V1H15.5509V-1ZM20.4887 1H19.4887V-1H20.4887V1ZM22.8574 0.314224L23.3914 1.15971L21.7004 2.22769L21.1664 1.3822L22.8574 0.314224ZM23.845 5.62328L23.311 4.77779L25.002 3.70981L25.536 4.5553L23.845 5.62328ZM26.6074 6.25172L27.1414 7.09721L25.4504 8.16519L24.9164 7.3197L26.6074 6.25172ZM27.595 11.5608L27.061 10.7153L28.752 9.64731L29.286 10.4928L27.595 11.5608ZM30.3574 12.1892L30.8914 13.0347L29.2004 14.1027L28.6664 13.2572L30.3574 12.1892ZM31.345 17.4983L30.811 16.6528L32.502 15.5848L33.036 16.4303L31.345 17.4983ZM34.1074 18.1267L34.6414 18.9722L32.9504 20.0402L32.4164 19.1947L34.1074 18.1267ZM35.095 23.4358L34.561 22.5903L36.252 21.5223L36.786 22.3678L35.095 23.4358ZM37.8574 24.0642L38.3914 24.9097L36.7004 25.9777L36.1664 25.1322L37.8574 24.0642ZM38.845 29.3733L38.311 28.5278L40.002 27.4598L40.536 28.3053L38.845 29.3733ZM41.6074 30.0017L42.1414 30.8472L40.4504 31.9152L39.9164 31.0697L41.6074 30.0017ZM42.595 35.3108L42.061 34.4653L43.752 33.3973L44.286 34.2428L42.595 35.3108ZM45.3574 35.9392L45.8914 36.7847L44.2004 37.8527L43.6664 37.0072L45.3574 35.9392ZM46.345 41.2483L45.811 40.4028L47.502 39.3348L48.036 40.1803L46.345 41.2483ZM49.1074 41.8767L49.6414 42.7222L47.9504 43.7902L47.4164 42.9447L49.1074 41.8767ZM50.095 47.1858L49.561 46.3403L51.252 45.2723L51.786 46.1178L50.095 47.1858ZM52.8574 47.8142L53.3914 48.6597L51.7004 49.7277L51.1664 48.8822L52.8574 47.8142ZM53.845 53.1233L53.311 52.2778L55.002 51.2098L55.536 52.0553L53.845 53.1233ZM56.6074 53.7517L57.1414 54.5972L55.4504 55.6652L54.9164 54.8197L56.6074 53.7517ZM57.595 59.0608L57.061 58.2153L58.752 57.1473L59.286 57.9928L57.595 59.0608ZM59.1385 58.375H60.1385V60.375H59.1385V58.375ZM59.9502 60.375H58.9502V58.375H59.9502V60.375ZM59.8028 57.9928L60.3368 57.1473L62.0278 58.2153L61.4938 59.0608L59.8028 57.9928ZM64.1723 54.8197L63.6384 55.6652L61.9474 54.5972L62.4814 53.7517L64.1723 54.8197ZM63.5528 52.0553L64.0868 51.2098L65.7778 52.2778L65.2438 53.1233L63.5528 52.0553ZM67.9223 48.8822L67.3884 49.7277L65.6974 48.6597L66.2314 47.8142L67.9223 48.8822ZM67.3028 46.1178L67.8368 45.2723L69.5278 46.3403L68.9938 47.1858L67.3028 46.1178ZM71.6723 42.9447L71.1384 43.7902L69.4474 42.7222L69.9814 41.8767L71.6723 42.9447ZM71.0528 40.1803L71.5868 39.3348L73.2778 40.4028L72.7438 41.2483L71.0528 40.1803ZM75.4223 37.0072L74.8884 37.8527L73.1974 36.7847L73.7314 35.9392L75.4223 37.0072ZM74.8028 34.2428L75.3368 33.3973L77.0278 34.4653L76.4938 35.3108L74.8028 34.2428ZM79.1723 31.0697L78.6384 31.9152L76.9474 30.8472L77.4814 30.0017L79.1723 31.0697ZM78.5528 28.3053L79.0868 27.4598L80.7778 28.5278L80.2438 29.3733L78.5528 28.3053ZM82.9223 25.1322L82.3884 25.9777L80.6974 24.9097L81.2314 24.0642L82.9223 25.1322ZM82.3028 22.3678L82.8368 21.5223L84.5278 22.5903L83.9938 23.4358L82.3028 22.3678ZM86.6723 19.1947L86.1384 20.0402L84.4474 18.9722L84.9814 18.1267L86.6723 19.1947ZM86.0528 16.4303L86.5868 15.5848L88.2778 16.6528L87.7438 17.4983L86.0528 16.4303ZM90.4223 13.2572L89.8884 14.1027L88.1974 13.0347L88.7314 12.1892L90.4223 13.2572ZM89.8028 10.4928L90.3368 9.64731L92.0278 10.7153L91.4938 11.5608L89.8028 10.4928ZM94.1723 7.3197L93.6384 8.16519L91.9474 7.09721L92.4814 6.25172L94.1723 7.3197ZM93.5528 4.5553L94.0868 3.70981L95.7778 4.77779L95.2438 5.62328L93.5528 4.5553ZM97.9223 1.3822L97.3884 2.22769L95.6974 1.15971L96.2314 0.314224L97.9223 1.3822ZM98.6001 -1H99.6001V1H98.6001V-1ZM103.538 1H102.538V-1H103.538V1ZM105.513 -1H106.513V1H105.513V-1ZM110.451 1H109.451V-1H110.451V1ZM112.426 -1H113.426V1H112.426V-1ZM117.364 1H116.364V-1H117.364V1ZM118.653 1.39818L118.121 2.24469L116.428 1.17993L116.96 0.33342L118.653 1.39818ZM114.238 4.66243L114.77 3.81592L116.463 4.88068L115.931 5.72717L114.238 4.66243ZM114.842 7.45879L114.309 8.3053L112.616 7.24054L113.149 6.39403L114.842 7.45879ZM110.426 10.723L110.958 9.87653L112.651 10.9413L112.119 11.7878L110.426 10.723ZM111.03 13.5194L110.498 14.3659L108.805 13.3011L109.337 12.4546L111.03 13.5194ZM106.615 16.7836L107.147 15.9371L108.84 17.0019L108.308 17.8484L106.615 16.7836ZM107.219 19.58L106.686 20.4265L104.993 19.3618L105.526 18.5152L107.219 19.58ZM102.803 22.8443L103.335 21.9977L105.028 23.0625L104.496 23.909L102.803 22.8443ZM103.407 25.6406L102.875 26.4871L101.182 25.4224L101.714 24.5759L103.407 25.6406ZM98.9914 28.9049L99.5238 28.0583L101.217 29.1231L100.684 29.9696L98.9914 28.9049ZM99.5954 31.7012L99.0631 32.5477L97.3701 31.483L97.9024 30.6365L99.5954 31.7012ZM95.1799 34.9655L95.7123 34.1189L97.4053 35.1837L96.8729 36.0302L95.1799 34.9655ZM95.7839 37.7618L95.2515 38.6083L93.5585 37.5436L94.0909 36.6971L95.7839 37.7618ZM91.3683 41.0261L91.9007 40.1796L93.5937 41.2443L93.0614 42.0908L91.3683 41.0261ZM91.9723 43.8224L91.44 44.6689L89.7469 43.6042L90.2793 42.7577L91.9723 43.8224ZM87.5568 47.0867L88.0892 46.2402L89.7822 47.3049L89.2498 48.1514L87.5568 47.0867ZM88.1608 49.883L87.6284 50.7295L85.9354 49.6648L86.4678 48.8183L88.1608 49.883ZM83.7452 53.1473L84.2776 52.3008L85.9706 53.3655L85.4382 54.212L83.7452 53.1473ZM84.3492 55.9436L83.8169 56.7901L82.1238 55.7254L82.6562 54.8789L84.3492 55.9436ZM79.9337 59.2079L80.466 58.3614L82.1591 59.4261L81.6267 60.2726L79.9337 59.2079ZM80.5377 62.0042L80.0053 62.8508L78.3123 61.786L78.8447 60.9395L80.5377 62.0042ZM76.1221 65.2685L76.6545 64.422L78.3475 65.4867L77.8151 66.3332L76.1221 65.2685ZM76.7261 68.0648L76.1938 68.9114L74.5007 67.8466L75.0331 67.0001L76.7261 68.0648ZM72.3106 71.3291L72.8429 70.4826L74.536 71.5473L74.0036 72.3938L72.3106 71.3291ZM74.0036 73.0607L74.536 73.9072L72.8429 74.972L72.3106 74.1255L74.0036 73.0607ZM75.0331 78.4545L74.5007 77.6079L76.1938 76.5432L76.7261 77.3897L75.0331 78.4545ZM77.8151 79.1213L78.3475 79.9678L76.6545 81.0326L76.1221 80.1861L77.8151 79.1213ZM78.8447 84.5151L78.3123 83.6685L80.0053 82.6038L80.5377 83.4503L78.8447 84.5151ZM81.6267 85.1819L82.1591 86.0284L80.466 87.0932L79.9337 86.2467L81.6267 85.1819ZM82.6562 90.5757L82.1238 89.7292L83.8169 88.6644L84.3492 89.5109L82.6562 90.5757ZM85.4382 91.2425L85.9706 92.089L84.2776 93.1538L83.7452 92.3073L85.4382 91.2425ZM86.4678 96.6363L85.9354 95.7898L87.6284 94.725L88.1608 95.5715L86.4678 96.6363ZM89.2498 97.3031L89.7822 98.1496L88.0892 99.2144L87.5568 98.3679L89.2498 97.3031ZM90.2793 102.697L89.7469 101.85L91.44 100.786L91.9723 101.632L90.2793 102.697ZM93.0614 103.364L93.5937 104.21L91.9007 105.275L91.3683 104.428L93.0614 103.364ZM94.0909 108.757L93.5585 107.911L95.2515 106.846L95.7839 107.693L94.0909 108.757ZM96.8729 109.424L97.4053 110.271L95.7123 111.336L95.1799 110.489L96.8729 109.424ZM97.9024 114.818L97.37 113.972L99.0631 112.907L99.5954 113.753L97.9024 114.818ZM100.684 115.485L101.217 116.331L99.5238 117.396L98.9914 116.55L100.684 115.485ZM101.714 120.879L101.182 120.032L102.875 118.967L103.407 119.814L101.714 120.879ZM104.496 121.546L105.028 122.392L103.335 123.457L102.803 122.61L104.496 121.546ZM105.526 126.939L104.993 126.093L106.686 125.028L107.219 125.875L105.526 126.939ZM108.308 127.606L108.84 128.453L107.147 129.517L106.615 128.671L108.308 127.606ZM109.337 133L108.805 132.153L110.498 131.089L111.03 131.935L109.337 133ZM112.119 133.667L112.651 134.513L110.958 135.578L110.426 134.732L112.119 133.667ZM113.149 139.061L112.616 138.214L114.309 137.149L114.842 137.996L113.149 139.061ZM115.931 139.727L116.463 140.574L114.77 141.639L114.238 140.792L115.931 139.727ZM116.96 145.121L116.428 144.275L118.121 143.21L118.653 144.056L116.96 145.121ZM117.364 146.455H116.364V144.455H117.364V146.455ZM112.426 144.455H113.426V146.455H112.426V144.455ZM110.451 146.455H109.451V144.455H110.451V146.455ZM105.513 144.455H106.513V146.455H105.513V144.455ZM103.538 146.455H102.538V144.455H103.538V146.455ZM98.6001 144.455H99.6001V146.455H98.6001V144.455ZM96.2268 145.117L95.7001 144.267L97.4001 143.213L97.9269 144.063L96.2268 145.117ZM95.2483 139.741L95.7751 140.591L94.075 141.645L93.5483 140.795L95.2483 139.741ZM92.4768 139.066L91.9501 138.216L93.6501 137.162L94.1769 138.012L92.4768 139.066ZM91.4983 133.69L92.0251 134.54L90.325 135.594L89.7983 134.743L91.4983 133.69ZM88.7268 133.015L88.2001 132.165L89.9001 131.111L90.4269 131.961L88.7268 133.015ZM87.7483 127.639L88.2751 128.489L86.575 129.542L86.0483 128.692L87.7483 127.639ZM84.9768 126.963L84.4501 126.113L86.1501 125.06L86.6769 125.91L84.9768 126.963ZM83.9983 121.588L84.5251 122.438L82.825 123.491L82.2983 122.641L83.9983 121.588ZM81.2268 120.912L80.7001 120.062L82.4001 119.009L82.9269 119.859L81.2268 120.912ZM80.2483 115.537L80.7751 116.387L79.075 117.44L78.5483 116.59L80.2483 115.537ZM77.4768 114.861L76.9501 114.011L78.6501 112.958L79.1769 113.808L77.4768 114.861ZM76.4983 109.485L77.0251 110.335L75.325 111.389L74.7983 110.539L76.4983 109.485ZM73.7268 108.81L73.2001 107.96L74.9001 106.907L75.4269 107.757L73.7268 108.81ZM72.7483 103.434L73.2751 104.284L71.575 105.338L71.0483 104.488L72.7483 103.434ZM69.9768 102.759L69.4501 101.909L71.1501 100.855L71.6769 101.705L69.9768 102.759ZM68.9983 97.3831L69.5251 98.2331L67.825 99.2867L67.2983 98.4367L68.9983 97.3831ZM66.2268 96.7078L65.7001 95.8578L67.4001 94.8042L67.9269 95.6542L66.2268 96.7078ZM65.2483 91.332L65.7751 92.182L64.075 93.2355L63.5483 92.3855L65.2483 91.332ZM62.4769 90.6566L61.9501 89.8066L63.6501 88.7531L64.1769 89.6031L62.4769 90.6566ZM61.4983 85.2809L62.0251 86.1309L60.325 87.1844L59.7983 86.3344L61.4983 85.2809ZM59.9502 85.9432H58.9502V83.9432H59.9502V85.9432ZM59.1385 83.9432H60.1385V85.9432H59.1385V83.9432ZM59.2905 86.3344L58.7637 87.1844L57.0637 86.1309L57.5905 85.2809L59.2905 86.3344ZM54.9119 89.6031L55.4387 88.7531L57.1387 89.8066L56.6119 90.6566L54.9119 89.6031ZM55.5405 92.3855L55.0137 93.2355L53.3137 92.182L53.8405 91.332L55.5405 92.3855ZM51.1619 95.6542L51.6887 94.8042L53.3887 95.8578L52.8619 96.7078L51.1619 95.6542ZM51.7905 98.4367L51.2637 99.2867L49.5637 98.2332L50.0905 97.3831L51.7905 98.4367ZM47.4119 101.705L47.9387 100.855L49.6387 101.909L49.1119 102.759L47.4119 101.705ZM48.0405 104.488L47.5137 105.338L45.8137 104.284L46.3405 103.434L48.0405 104.488ZM43.6619 107.757L44.1887 106.907L45.8887 107.96L45.3619 108.81L43.6619 107.757ZM44.2905 110.539L43.7637 111.389L42.0637 110.335L42.5905 109.485L44.2905 110.539ZM39.9119 113.808L40.4387 112.958L42.1387 114.011L41.6119 114.861L39.9119 113.808ZM40.5405 116.59L40.0137 117.44L38.3137 116.387L38.8405 115.537L40.5405 116.59ZM36.1619 119.859L36.6887 119.009L38.3887 120.062L37.8619 120.912L36.1619 119.859ZM36.7905 122.641L36.2637 123.491L34.5637 122.438L35.0905 121.588L36.7905 122.641ZM32.4119 125.91L32.9387 125.06L34.6387 126.113L34.1119 126.963L32.4119 125.91ZM33.0405 128.692L32.5137 129.542L30.8137 128.489L31.3405 127.639L33.0405 128.692ZM28.6619 131.961L29.1887 131.111L30.8887 132.165L30.3619 133.015L28.6619 131.961ZM29.2905 134.743L28.7637 135.594L27.0637 134.54L27.5905 133.69L29.2905 134.743ZM24.9119 138.012L25.4387 137.162L27.1387 138.216L26.6119 139.066L24.9119 138.012ZM25.5405 140.795L25.0137 141.645L23.3137 140.591L23.8405 139.741L25.5405 140.795ZM21.1619 144.063L21.6887 143.213L23.3887 144.267L22.8619 145.117L21.1619 144.063ZM21.4762 146.455H20.4887V144.455H21.4762V146.455ZM15.5509 146.455H13.5758V144.455H15.5509V146.455ZM8.638 146.455H6.6629V144.455H8.638V146.455ZM1.72513 146.455H0.737571V144.455H1.72513V146.455ZM-0.102967 144.913L0.455069 144.047L2.13614 145.131L1.57811 145.996L-0.102967 144.913ZM3.24525 139.718L4.36132 137.986L6.04239 139.07L4.92632 140.801L3.24525 139.718ZM7.1515 133.657L8.26757 131.926L9.94864 133.009L8.83257 134.741L7.1515 133.657ZM11.0577 127.597L12.1738 125.865L13.8549 126.949L12.7388 128.68L11.0577 127.597ZM14.964 121.536L16.0801 119.805L17.7611 120.888L16.6451 122.62L14.964 121.536ZM18.8702 115.476L19.9863 113.744L21.6674 114.827L20.5513 116.559L18.8702 115.476ZM22.7765 109.415L23.8926 107.683L25.5736 108.767L24.4576 110.498L22.7765 109.415ZM26.6828 103.354L27.7988 101.623L29.4799 102.706L28.3638 104.438L26.6828 103.354ZM30.589 97.2937L31.7051 95.5621L33.3862 96.6457L32.2701 98.3773L30.589 97.2937ZM34.4953 91.2331L35.6113 89.5015L37.2924 90.5851L36.1763 92.3166L34.4953 91.2331ZM38.4015 85.1725L39.5176 83.4409L41.1986 84.5244L40.0826 86.256L38.4015 85.1725ZM42.3077 79.1119L43.4238 77.3803L45.1049 78.4638L43.9888 80.1954L42.3077 79.1119ZM46.214 73.0513L46.772 72.1855L48.4531 73.269L47.8951 74.1348L46.214 73.0513ZM46.772 73.269L46.214 72.4032L47.8951 71.3197L48.4531 72.1855L46.772 73.269ZM43.4238 68.0742L42.3078 66.3426L43.9888 65.2591L45.1049 66.9907L43.4238 68.0742ZM39.5176 62.0136L38.4015 60.282L40.0826 59.1985L41.1986 60.9301L39.5176 62.0136ZM35.6113 55.953L34.4953 54.2214L36.1763 53.1379L37.2924 54.8695L35.6113 55.953ZM31.7051 49.8924L30.589 48.1608L32.2701 47.0773L33.3861 48.8089L31.7051 49.8924ZM27.7988 43.8318L26.6827 42.1002L28.3638 41.0167L29.4799 42.7483L27.7988 43.8318ZM23.8926 37.7712L22.7765 36.0396L24.4576 34.9561L25.5736 36.6877L23.8926 37.7712ZM19.9863 31.7106L18.8702 29.979L20.5513 28.8955L21.6674 30.6271L19.9863 31.7106ZM16.0801 25.65L14.964 23.9184L16.6451 22.8349L17.7611 24.5665L16.0801 25.65ZM12.1738 19.5894L11.0578 17.8578L12.7388 16.7743L13.8549 18.5059L12.1738 19.5894ZM8.26757 13.5288L7.1515 11.7972L8.83258 10.7137L9.94865 12.4453L8.26757 13.5288ZM4.36132 7.46817L3.24525 5.73656L4.92633 4.65306L6.0424 6.38466L4.36132 7.46817ZM0.455075 1.40756L-0.102967 0.541748L1.57811 -0.541748L2.13615 0.324051L0.455075 1.40756ZM0.737571 -1H1.72513V1H0.737571V-1ZM6.6629 -1H8.63801V1H6.6629V-1ZM13.5758 -1H15.5509V1H13.5758V-1ZM20.4887 -1H21.4762V1H20.4887V-1ZM22.3217 -0.533997L22.8574 0.314224L21.1664 1.3822L20.6307 0.533997L22.3217 -0.533997ZM25.536 4.5553L26.6074 6.25172L24.9164 7.3197L23.845 5.62328L25.536 4.5553ZM29.286 10.4928L30.3574 12.1892L28.6664 13.2572L27.595 11.5608L29.286 10.4928ZM33.036 16.4303L34.1074 18.1267L32.4164 19.1947L31.345 17.4983L33.036 16.4303ZM36.786 22.3678L37.8574 24.0642L36.1664 25.1322L35.095 23.4358L36.786 22.3678ZM40.536 28.3053L41.6074 30.0017L39.9164 31.0697L38.845 29.3733L40.536 28.3053ZM44.286 34.2428L45.3574 35.9392L43.6664 37.0072L42.595 35.3108L44.286 34.2428ZM48.036 40.1803L49.1074 41.8767L47.4164 42.9447L46.345 41.2483L48.036 40.1803ZM51.786 46.1178L52.8574 47.8142L51.1664 48.8822L50.095 47.1858L51.786 46.1178ZM55.536 52.0553L56.6074 53.7517L54.9164 54.8197L53.845 53.1233L55.536 52.0553ZM59.286 57.9928L59.8217 58.841L58.1307 59.909L57.595 59.0608L59.286 57.9928ZM58.9762 58.375H59.1385V60.375H58.9762V58.375ZM59.9502 58.375H60.1126V60.375H59.9502V58.375ZM59.2671 58.841L59.8028 57.9928L61.4938 59.0608L60.9581 59.909L59.2671 58.841ZM62.4814 53.7517L63.5528 52.0553L65.2438 53.1233L64.1723 54.8197L62.4814 53.7517ZM66.2314 47.8142L67.3028 46.1178L68.9938 47.1858L67.9223 48.8822L66.2314 47.8142ZM69.9814 41.8767L71.0528 40.1803L72.7438 41.2483L71.6723 42.9447L69.9814 41.8767ZM73.7314 35.9392L74.8028 34.2428L76.4938 35.3108L75.4223 37.0072L73.7314 35.9392ZM77.4814 30.0017L78.5528 28.3053L80.2438 29.3733L79.1723 31.0697L77.4814 30.0017ZM81.2314 24.0642L82.3028 22.3678L83.9938 23.4358L82.9223 25.1322L81.2314 24.0642ZM84.9814 18.1267L86.0528 16.4303L87.7438 17.4983L86.6723 19.1947L84.9814 18.1267ZM88.7314 12.1892L89.8028 10.4928L91.4938 11.5608L90.4223 13.2572L88.7314 12.1892ZM92.4814 6.25172L93.5528 4.5553L95.2438 5.62328L94.1723 7.3197L92.4814 6.25172ZM96.2314 0.314224L96.7671 -0.533997L98.4581 0.533997L97.9223 1.3822L96.2314 0.314224ZM97.6126 -1H98.6001V1H97.6126V-1ZM103.538 -1H105.513V1H103.538V-1ZM110.451 -1H112.426V1H110.451V-1ZM117.364 -1H118.351V1H117.364V-1ZM119.198 0.532379L118.653 1.39818L116.96 0.33342L117.505 -0.532379L119.198 0.532379ZM115.931 5.72717L114.842 7.45879L113.149 6.39403L114.238 4.66243L115.931 5.72717ZM112.119 11.7878L111.03 13.5194L109.337 12.4546L110.426 10.723L112.119 11.7878ZM108.308 17.8484L107.219 19.58L105.526 18.5152L106.615 16.7836L108.308 17.8484ZM104.496 23.909L103.407 25.6406L101.714 24.5759L102.803 22.8443L104.496 23.909ZM100.684 29.9696L99.5954 31.7012L97.9024 30.6365L98.9914 28.9049L100.684 29.9696ZM96.8729 36.0302L95.7839 37.7618L94.0909 36.6971L95.1799 34.9655L96.8729 36.0302ZM93.0614 42.0908L91.9723 43.8224L90.2793 42.7577L91.3683 41.0261L93.0614 42.0908ZM89.2498 48.1514L88.1608 49.883L86.4678 48.8183L87.5568 47.0867L89.2498 48.1514ZM85.4382 54.212L84.3492 55.9436L82.6562 54.8789L83.7452 53.1473L85.4382 54.212ZM81.6267 60.2726L80.5377 62.0042L78.8447 60.9395L79.9337 59.2079L81.6267 60.2726ZM77.8151 66.3332L76.7261 68.0648L75.0331 67.0001L76.1221 65.2685L77.8151 66.3332ZM74.0036 72.3938L73.4591 73.2597L71.7661 72.1949L72.3106 71.3291L74.0036 72.3938ZM73.4591 72.1949L74.0036 73.0607L72.3106 74.1255L71.7661 73.2597L73.4591 72.1949ZM76.7261 77.3897L77.8151 79.1213L76.1221 80.1861L75.0331 78.4545L76.7261 77.3897ZM80.5377 83.4503L81.6267 85.1819L79.9337 86.2467L78.8447 84.5151L80.5377 83.4503ZM84.3492 89.5109L85.4382 91.2425L83.7452 92.3073L82.6562 90.5757L84.3492 89.5109ZM88.1608 95.5715L89.2498 97.3031L87.5568 98.3679L86.4678 96.6363L88.1608 95.5715ZM91.9723 101.632L93.0614 103.364L91.3683 104.428L90.2793 102.697L91.9723 101.632ZM95.7839 107.693L96.8729 109.424L95.1799 110.489L94.0909 108.757L95.7839 107.693ZM99.5954 113.753L100.684 115.485L98.9914 116.55L97.9024 114.818L99.5954 113.753ZM103.407 119.814L104.496 121.546L102.803 122.61L101.714 120.879L103.407 119.814ZM107.219 125.875L108.308 127.606L106.615 128.671L105.526 126.939L107.219 125.875ZM111.03 131.935L112.119 133.667L110.426 134.732L109.337 133L111.03 131.935ZM114.842 137.996L115.931 139.727L114.238 140.792L113.149 139.061L114.842 137.996ZM118.653 144.056L119.198 144.922L117.505 145.987L116.96 145.121L118.653 144.056ZM118.351 146.455H117.364V144.455H118.351V146.455ZM112.426 146.455H110.451V144.455H112.426V146.455ZM105.513 146.455H103.538V144.455H105.513V146.455ZM98.6001 146.455H97.6126V144.455H98.6001V146.455ZM96.7626 145.981L96.2268 145.117L97.9269 144.063L98.4626 144.928L96.7626 145.981ZM93.5483 140.795L92.4768 139.066L94.1769 138.012L95.2483 139.741L93.5483 140.795ZM89.7983 134.743L88.7268 133.015L90.4269 131.961L91.4983 133.69L89.7983 134.743ZM86.0483 128.692L84.9768 126.963L86.6769 125.91L87.7483 127.639L86.0483 128.692ZM82.2983 122.641L81.2268 120.912L82.9269 119.859L83.9983 121.588L82.2983 122.641ZM78.5483 116.59L77.4768 114.861L79.1769 113.808L80.2483 115.537L78.5483 116.59ZM74.7983 110.539L73.7268 108.81L75.4269 107.757L76.4983 109.485L74.7983 110.539ZM71.0483 104.488L69.9768 102.759L71.6769 101.705L72.7483 103.434L71.0483 104.488ZM67.2983 98.4367L66.2268 96.7078L67.9269 95.6542L68.9983 97.3831L67.2983 98.4367ZM63.5483 92.3855L62.4769 90.6566L64.1769 89.6031L65.2483 91.332L63.5483 92.3855ZM59.7983 86.3344L59.2626 85.47L60.9626 84.4164L61.4983 85.2809L59.7983 86.3344ZM60.1126 85.9432H59.9502V83.9432H60.1126V85.9432ZM59.1385 85.9432H58.9762V83.9432H59.1385V85.9432ZM59.8262 85.47L59.2905 86.3344L57.5905 85.2809L58.1262 84.4164L59.8262 85.47ZM56.6119 90.6566L55.5405 92.3855L53.8405 91.332L54.9119 89.6031L56.6119 90.6566ZM52.8619 96.7078L51.7905 98.4367L50.0905 97.3831L51.1619 95.6542L52.8619 96.7078ZM49.1119 102.759L48.0405 104.488L46.3405 103.434L47.4119 101.705L49.1119 102.759ZM45.3619 108.81L44.2905 110.539L42.5905 109.485L43.6619 107.757L45.3619 108.81ZM41.6119 114.861L40.5405 116.59L38.8405 115.537L39.9119 113.808L41.6119 114.861ZM37.8619 120.912L36.7905 122.641L35.0905 121.588L36.1619 119.859L37.8619 120.912ZM34.1119 126.963L33.0405 128.692L31.3405 127.639L32.4119 125.91L34.1119 126.963ZM30.3619 133.015L29.2905 134.743L27.5905 133.69L28.6619 131.961L30.3619 133.015ZM26.6119 139.066L25.5405 140.795L23.8405 139.741L24.9119 138.012L26.6119 139.066ZM22.8619 145.117L22.3262 145.981L20.6262 144.928L21.1619 144.063L22.8619 145.117Z" fill="white" mask="url(#path-1-outside-1_1_4)"/>
</svg>
