<svg width="511" height="170" viewBox="0 0 511 170" fill="none" xmlns="http://www.w3.org/2000/svg">
<g id="TableX">
<g id="Vector 2" filter="url(#filter0_b_49_3)">
<path d="M472.314 55.8099L466.718 46.9296L472.314 36H509L477.91 83.8169L509 133H472.314L460.5 113.873L448.064 133H412L454.282 65.3732L442.468 46.9296H431.276L442.468 65.3732L436.25 74.2535L412 36H448.064L466.718 65.3732L431.276 122.07H442.468L460.5 94.0634L477.91 121.387H489.724L466.718 83.8169L489.724 46.9296H477.91L472.314 55.8099Z" fill="black"/>
<path d="M472.314 55.8099L466.718 46.9296L472.314 36H509L477.91 83.8169L509 133H472.314L460.5 113.873L448.064 133H412L454.282 65.3732L442.468 46.9296H431.276L442.468 65.3732L436.25 74.2535L412 36H448.064L466.718 65.3732L431.276 122.07H442.468L460.5 94.0634L477.91 121.387H489.724L466.718 83.8169L489.724 46.9296H477.91L472.314 55.8099Z" stroke="white" stroke-width="3" stroke-linejoin="round"/>
</g>
<path id="Table" d="M88.913 35.73V58.335H60.691V133H32.195V58.335H3.973V35.73H88.913ZM94.8511 83.817C97.5911 67.103 110.058 58.746 132.115 58.746C157.049 58.746 168.968 69.432 168.968 91.352V108.751C168.968 115.053 171.434 115.601 173.626 115.601H176.092V133L173.489 133.274C170.886 133.548 150.336 138.069 146.774 122.177C142.801 130.26 134.307 134.644 119.648 134.644C104.715 134.644 93.7551 126.561 93.7551 113.82C93.7551 101.627 102.797 95.462 121.429 91.626L140.472 87.653C140.335 78.474 137.732 74.364 131.978 74.364C126.772 74.364 123.758 77.652 122.662 84.913L94.8511 83.817ZM122.525 112.45C122.525 116.149 125.539 118.615 130.334 118.615C136.773 118.615 140.746 113.272 140.746 103.408V102.723L132.937 104.23C126.361 105.463 122.525 107.381 122.525 112.45ZM186.542 35.73H214.764V70.939C219.285 62.993 226.683 58.746 235.725 58.746C255.042 58.746 266.413 74.09 266.413 96.695C266.413 119.3 255.042 134.644 235.725 134.644C225.998 134.644 218.6 130.26 214.49 122.451L214.079 133H186.542V35.73ZM213.531 96.695C213.531 106.97 217.778 114.916 225.587 114.916C232.985 114.916 237.78 106.97 237.78 96.695C237.78 85.872 233.533 78.337 225.587 78.337C217.915 78.337 213.531 86.009 213.531 96.695ZM280.653 35.73H308.875V106.559C308.875 110.669 311.341 113.272 315.451 113.272H319.698V133H305.998C290.791 133 280.653 124.369 280.653 107.655V35.73ZM327.223 96.695C327.223 73.816 343.389 58.746 367.775 58.746C391.339 58.746 407.779 75.46 406.683 100.942L406.546 103.545H356.541C356.678 111.08 361.062 115.875 367.775 115.875C372.296 115.875 376.406 113.135 377.913 109.299L405.724 111.217C401.203 125.602 386.681 134.644 367.775 134.644C343.389 134.644 327.223 119.574 327.223 96.695ZM356.541 89.16H378.735C378.324 81.625 373.803 77.515 367.775 77.515C361.336 77.515 356.952 82.173 356.541 89.16Z" fill="white"/>
</g>
<defs>
<filter id="filter0_b_49_3" x="406.5" y="30.5" width="108" height="108" filterUnits="userSpaceOnUse" color-interpolation-filters="sRGB">
<feFlood flood-opacity="0" result="BackgroundImageFix"/>
<feGaussianBlur in="BackgroundImageFix" stdDeviation="2"/>
<feComposite in2="SourceAlpha" operator="in" result="effect1_backgroundBlur_49_3"/>
<feBlend mode="normal" in="SourceGraphic" in2="effect1_backgroundBlur_49_3" result="shape"/>
</filter>
</defs>
</svg>
